<svg width="102" height="61" viewBox="0 0 102 61" fill="none" xmlns="http://www.w3.org/2000/svg">
<path d="M45.806 22.0203L60.7469 30.3208L45.806 38.6213L45.806 22.0203Z" stroke="#319559" stroke-width="2"/>
<path fill-rule="evenodd" clip-rule="evenodd" d="M61.775 9.58767L68.0971 20.5378C68.2154 20.7344 68.3302 20.9333 68.4415 21.1344L71.436 26.3209L73.5184 22.7141C71.4955 16.9397 67.2342 12.2174 61.775 9.58767ZM56.0758 7.71638C54.6923 7.45665 53.265 7.3208 51.806 7.3208C46.9967 7.3208 42.5321 8.79692 38.8406 11.3208H51.8059H58.1568L56.0758 7.71638ZM74.7422 28.5944L68.4378 39.5139C68.3289 39.7105 68.2166 39.905 68.101 40.0973L65.0852 45.3208H69.2421C72.7098 41.2937 74.806 36.052 74.806 30.3208C74.806 29.7401 74.7845 29.1643 74.7422 28.5944ZM64.7714 49.3208H51.8059H45.4553L47.5364 52.9252C48.9199 53.185 50.3471 53.3208 51.806 53.3208C56.6154 53.3208 61.08 51.8447 64.7714 49.3208ZM41.8372 51.054L35.5219 40.1155C35.3987 39.9112 35.2793 39.7044 35.1637 39.4952L32.1763 34.3208L30.0938 37.9278C32.1167 43.7021 36.378 48.4244 41.8372 51.054ZM28.8699 32.0476L35.1646 21.1448C35.2796 20.9367 35.3984 20.7309 35.5209 20.5276L38.5271 15.3208H34.3699C30.9023 19.3479 28.806 24.5896 28.806 30.3208C28.806 30.9017 28.8276 31.4775 28.8699 32.0476Z" fill="#7981FB"/>
</svg>
