<svg width="102" height="61" viewBox="0 0 102 61" fill="none" xmlns="http://www.w3.org/2000/svg">
<mask id="path-1-inside-1" fill="white">
<path d="M24.806 42.3208C24.806 50.6051 31.5218 57.3208 39.806 57.3208V59.3208C30.4172 59.3208 22.806 51.7096 22.806 42.3208H24.806Z"/>
<path d="M78.806 18.3208C78.806 10.0365 72.0903 3.3208 63.806 3.3208V1.3208C73.1949 1.3208 80.806 8.93196 80.806 18.3208H78.806Z"/>
<path d="M28.806 42.3208C28.806 48.3959 33.7309 53.3208 39.806 53.3208V55.3208C32.6263 55.3208 26.806 49.5005 26.806 42.3208H28.806Z"/>
<path d="M74.806 18.3208C74.806 12.2457 69.8812 7.3208 63.806 7.3208V5.3208C70.9857 5.3208 76.806 11.1411 76.806 18.3208H74.806Z"/>
<path d="M63.806 11.3208C67.672 11.3208 70.806 14.4548 70.806 18.3208H72.806C72.806 13.3502 68.7766 9.3208 63.806 9.3208V11.3208Z"/>
<path d="M39.806 49.3208C35.94 49.3208 32.806 46.1868 32.806 42.3208H30.806C30.806 47.2914 34.8355 51.3208 39.806 51.3208V49.3208Z"/>
</mask>
<path d="M39.806 57.3208H41.806V55.3208H39.806V57.3208ZM24.806 42.3208H26.806V40.3208H24.806V42.3208ZM63.806 3.3208H61.806V5.3208H63.806V3.3208ZM78.806 18.3208H76.806V20.3208H78.806V18.3208ZM39.806 59.3208V61.3208H41.806V59.3208H39.806ZM22.806 42.3208V40.3208H20.806V42.3208H22.806ZM63.806 1.3208V-0.679199H61.806V1.3208H63.806ZM80.806 18.3208V20.3208H82.806V18.3208H80.806ZM39.806 53.3208H41.806V51.3208H39.806V53.3208ZM28.806 42.3208H30.806V40.3208H28.806V42.3208ZM63.806 7.3208H61.806V9.3208H63.806V7.3208ZM74.806 18.3208H72.806V20.3208H74.806V18.3208ZM39.806 55.3208V57.3208H41.806V55.3208H39.806ZM26.806 42.3208V40.3208H24.806V42.3208H26.806ZM63.806 5.3208V3.3208H61.806V5.3208H63.806ZM76.806 18.3208V20.3208H78.806V18.3208H76.806ZM70.806 18.3208H68.806V20.3208H70.806V18.3208ZM63.806 11.3208H61.806V13.3208H63.806V11.3208ZM32.806 42.3208H34.806V40.3208H32.806V42.3208ZM39.806 49.3208H41.806V47.3208H39.806V49.3208ZM72.806 18.3208V20.3208H74.806V18.3208H72.806ZM63.806 9.3208V7.3208H61.806V9.3208H63.806ZM30.806 42.3208V40.3208H28.806V42.3208H30.806ZM39.806 51.3208V53.3208H41.806V51.3208H39.806ZM39.806 55.3208C32.6263 55.3208 26.806 49.5005 26.806 42.3208H22.806C22.806 51.7096 30.4172 59.3208 39.806 59.3208V55.3208ZM63.806 5.3208C70.9857 5.3208 76.806 11.1411 76.806 18.3208H80.806C80.806 8.93196 73.1949 1.3208 63.806 1.3208V5.3208ZM39.806 57.3208C31.5218 57.3208 24.806 50.6051 24.806 42.3208H20.806C20.806 52.8142 29.3126 61.3208 39.806 61.3208V57.3208ZM63.806 3.3208C72.0903 3.3208 78.806 10.0365 78.806 18.3208H82.806C82.806 7.82739 74.2994 -0.679199 63.806 -0.679199V3.3208ZM39.806 51.3208C34.8355 51.3208 30.806 47.2914 30.806 42.3208H26.806C26.806 49.5005 32.6263 55.3208 39.806 55.3208V51.3208ZM63.806 9.3208C68.7766 9.3208 72.806 13.3502 72.806 18.3208H76.806C76.806 11.1411 70.9857 5.3208 63.806 5.3208V9.3208ZM39.806 53.3208C33.7309 53.3208 28.806 48.3959 28.806 42.3208H24.806C24.806 50.6051 31.5218 57.3208 39.806 57.3208V53.3208ZM63.806 7.3208C69.8812 7.3208 74.806 12.2457 74.806 18.3208H78.806C78.806 10.0365 72.0903 3.3208 63.806 3.3208V7.3208ZM72.806 18.3208C72.806 13.3502 68.7766 9.3208 63.806 9.3208V13.3208C66.5675 13.3208 68.806 15.5594 68.806 18.3208H72.806ZM30.806 42.3208C30.806 47.2914 34.8355 51.3208 39.806 51.3208V47.3208C37.0446 47.3208 34.806 45.0822 34.806 42.3208H30.806ZM74.806 18.3208C74.806 12.2457 69.8812 7.3208 63.806 7.3208V11.3208C67.672 11.3208 70.806 14.4548 70.806 18.3208H74.806ZM28.806 42.3208C28.806 48.3959 33.7309 53.3208 39.806 53.3208V49.3208C35.94 49.3208 32.806 46.1868 32.806 42.3208H28.806ZM32.806 40.3208H30.806V44.3208H32.806V40.3208ZM28.806 40.3208H26.806V44.3208H28.806V40.3208ZM24.806 40.3208H22.806V44.3208H24.806V40.3208ZM37.806 49.3208V51.3208H41.806V49.3208H37.806ZM37.806 53.3208V55.3208H41.806V53.3208H37.806ZM37.806 57.3208V59.3208H41.806V57.3208H37.806ZM70.806 20.3208H72.806V16.3208H70.806V20.3208ZM74.806 20.3208H76.806V16.3208H74.806V20.3208ZM78.806 20.3208H80.806V16.3208H78.806V20.3208ZM65.806 11.3208V9.3208H61.806V11.3208H65.806ZM65.806 7.3208V5.3208H61.806V7.3208H65.806ZM65.806 3.3208V1.3208H61.806V3.3208H65.806Z" fill="#5FBAFF" mask="url(#path-1-inside-1)"/>
<path d="M37.806 20.3208C37.806 18.1117 39.5969 16.3208 41.806 16.3208H61.806C64.0152 16.3208 65.806 18.1117 65.806 20.3208V40.3208C65.806 42.5299 64.0152 44.3208 61.806 44.3208H41.806C39.5969 44.3208 37.806 42.5299 37.806 40.3208V20.3208Z" stroke="#E83D43" stroke-width="2"/>
<circle cx="51.806" cy="30.3208" r="5" stroke="#E83D43" stroke-width="2"/>
<circle cx="59.306" cy="22.8208" r="1.5" fill="#E83D43"/>
</svg>
