<svg width="36" height="36" viewBox="0 0 36 36" fill="none" xmlns="http://www.w3.org/2000/svg">
<path d="M0.80603 6.8833C0.80603 3.25893 3.74416 0.320801 7.36853 0.320801H29.2435C32.8679 0.320801 35.806 3.25893 35.806 6.8833V28.7583C35.806 32.3827 32.8679 35.3208 29.2435 35.3208H7.36853C3.74416 35.3208 0.80603 32.3827 0.80603 28.7583V6.8833Z" fill="#78BD20"/>
<path d="M29.1591 9.69592C29.6838 6.82092 28.8766 4.82092 25.567 4.82092H15.2751L14.3065 9.86259H23.0647C23.5894 9.86259 23.7508 10.1543 23.6701 10.7793L22.54 16.7793H17.0914L17.8986 12.6126L5.30615 18.8626H14.6697L13.8625 23.0293L22.1364 18.9459L21.0467 24.8626C20.8852 25.4459 20.6027 25.7376 19.9569 25.7376H11.2795L10.3512 30.8209H20.6834C23.9526 30.8209 25.567 28.8209 26.0513 25.9459L29.1591 9.69592Z" fill="black"/>
</svg>
