<svg width="41" height="41" viewBox="0 0 41 41" fill="none" xmlns="http://www.w3.org/2000/svg">
<path d="M40.806 20.3208C40.806 31.3621 31.8474 40.3208 20.806 40.3208C9.76471 40.3208 0.80603 31.3621 0.80603 20.3208C0.80603 9.27947 9.76471 0.320801 20.806 0.320801C31.8474 0.320801 40.806 9.27947 40.806 20.3208Z" fill="white"/>
<path d="M37.9635 20.3213C37.9635 29.7759 30.2941 37.4784 20.8065 37.4784C11.3189 37.4784 3.64948 29.8089 3.64948 20.3213C3.64948 10.8337 11.3189 3.16431 20.8065 3.16431C30.2941 3.16431 37.9635 10.8668 37.9635 20.3213Z" fill="#ED1D24"/>
<path d="M31.153 27.2964C31.153 27.9906 30.591 28.5526 29.8968 28.5526C29.2026 28.5526 28.6406 27.9906 28.6406 27.2964C28.6406 26.6021 29.2026 26.0402 29.8968 26.0402C30.6241 26.0402 31.153 26.6021 31.153 27.2964Z" fill="white"/>
<path d="M15.6826 27.9899C14.3603 26.6014 15.3851 23.9237 15.6165 21.6758C15.3189 21.9733 12.509 28.5518 9.93052 28.5518C9.89746 28.5518 9.83135 28.5518 9.79829 28.5518C7.45119 28.3204 7.74871 25.0808 8.47598 23.1303H12.2446C11.0875 26.337 12.6743 25.0146 13.7652 22.9981C15.9471 18.5684 15.9801 18.4692 18.3603 11.7915H22.5256C21.3024 15.5932 20.2446 18.9981 19.7487 22.932C19.7487 23.0642 19.8148 23.2295 19.9801 23.1634C20.8396 23.0312 25.5008 12.5188 25.9305 11.7915H30.0958C30.0958 11.7915 25.6661 24.0229 26.3933 25.1799C26.757 25.8411 27.2528 24.5849 27.7156 24.089L28.3768 24.7502C27.1537 26.1056 25.7652 28.5849 23.8148 28.5849C23.6495 28.5849 23.5173 28.5518 23.352 28.5518C23.0545 28.4857 22.757 28.3204 22.5586 28.1221C20.3107 26.1717 24.3768 18.8989 23.947 18.4361C23.8148 18.4361 23.6826 18.7998 23.4512 19.2956C22.228 21.8411 19.3851 28.5849 17.038 28.5849C16.6413 28.5518 16.0793 28.4196 15.6826 27.9899Z" fill="white"/>
</svg>
