<svg width="61" height="61" viewBox="0 0 61 61" fill="none" xmlns="http://www.w3.org/2000/svg">
<path d="M54.0715 7.35354C47.8709 1.85227 39.665 0.619415 32.0111 0.619415H29.5823C21.6522 0.619415 13.3911 1.96248 7.54019 7.35354C2.05704 13.5541 0.80603 21.7786 0.80603 29.4323V31.7877C0.80603 39.6994 2.14915 48.0342 7.54019 53.8849C13.7775 59.4049 22.0387 60.6194 29.7295 60.6194H31.8637C39.8123 60.6194 48.184 59.2943 54.0715 53.8849C59.5915 47.6475 60.806 39.3682 60.806 31.6772V29.543C60.806 21.5946 59.4809 13.223 54.0715 7.35354Z" fill="#FBFCFD"/>
<path d="M30.8028 36.5118C28.0652 36.5118 25.8381 34.3346 25.8381 31.6581C25.8381 28.9818 28.0652 26.8042 30.8028 26.8042C33.5403 26.8042 35.7675 28.9818 35.7675 31.6581C35.7675 34.3346 33.5403 36.5118 30.8028 36.5118ZM27.4177 14.8959C27.4177 13.071 28.9362 11.5865 30.8028 11.5865C32.6696 11.5865 34.1879 13.071 34.1879 14.8959C34.1879 16.7208 32.6696 18.2053 30.8028 18.2053C28.9362 18.2053 27.4177 16.7208 27.4177 14.8959ZM17.7163 27.5008C17.2616 28.8691 15.9687 29.7891 14.4988 29.7891C14.1443 29.7891 13.7917 29.7341 13.4507 29.6256C11.6755 29.0615 10.7007 27.1909 11.2777 25.455C11.7326 24.0867 13.0262 23.1674 14.4966 23.1674C14.8506 23.1674 15.2021 23.2225 15.543 23.3305C16.4027 23.6036 17.1024 24.1882 17.5131 24.9761C17.9234 25.7642 17.9958 26.6606 17.7163 27.5008ZM38.4756 31.6581C38.4756 27.8976 35.8546 24.8576 32.158 24.3212V20.3502C34.7297 19.8374 36.4445 17.5598 36.4445 14.8959C36.4445 11.8543 33.9137 9.38009 30.8028 9.38009C27.6919 9.38009 25.1612 11.8543 25.1612 14.8959C25.1612 17.5598 27.3296 19.8374 29.9012 20.3502V24.3212C27.385 24.6863 25.0407 26.1709 23.9424 28.3187L20.1039 27.0992C20.2296 26.0332 20.0338 24.9541 19.5238 23.9754C18.8398 22.6622 17.6735 21.6876 16.2404 21.2326C15.6744 21.0522 15.0876 20.9609 14.4966 20.9609C12.0455 20.9609 9.88938 22.4931 9.1313 24.7734C8.16996 27.666 9.7951 30.784 12.7533 31.724C13.3202 31.9037 13.9072 31.9954 14.4988 31.9954C16.5641 31.9954 18.4167 30.9038 19.4027 29.1962L23.2442 30.4165C23.1748 30.8212 23.13 31.2342 23.13 31.6581C23.13 35.7947 26.5719 39.1596 30.8028 39.1596C35.0336 39.1596 38.4756 35.7947 38.4756 31.6581ZM50.1243 27.9797C49.7138 28.7682 49.0145 29.3522 48.1537 29.6256C47.8129 29.7337 47.4609 29.7888 47.1076 29.7888C45.6372 29.7888 44.3433 28.8691 43.8883 27.5008C43.3119 25.7654 44.2873 23.8945 46.0623 23.3305C46.4036 23.2225 46.7556 23.1674 47.1097 23.1674C48.5792 23.1674 49.8732 24.0872 50.3281 25.4559C50.6071 26.2957 50.5349 27.1921 50.1243 27.9797ZM52.4747 24.7739C51.716 22.4931 49.56 20.9609 47.1097 20.9609C46.5189 20.9609 45.932 21.0522 45.3651 21.2326C42.7738 22.0556 41.206 24.5498 41.5019 27.1L39.9203 27.6026L40.6177 29.701L42.2026 29.197C43.1895 30.9041 45.0421 31.9951 47.1076 31.9951C47.6984 31.9951 48.2853 31.9037 48.8509 31.724C50.285 31.2687 51.4512 30.2947 52.1355 28.9814C52.819 27.6685 52.9395 26.1743 52.4747 24.7739ZM42.8696 47.8962C42.2877 48.3094 41.6011 48.5281 40.8839 48.5281C39.8014 48.5281 38.7761 48.0183 38.1415 47.164C37.0444 45.6882 37.3803 43.6137 38.8899 42.5407C39.473 42.1269 40.1596 41.9084 40.8763 41.9084C41.9585 41.9084 42.9837 42.4185 43.6188 43.2733C44.7153 44.7496 44.3796 46.824 42.8696 47.8962ZM40.8763 39.7019C40.0618 39.7019 39.2729 39.875 38.5449 40.2001L37.5655 38.8826L35.7399 40.1795L36.7173 41.4949C34.9452 43.3882 34.7146 46.3068 36.3158 48.4605C37.3738 49.8844 39.081 50.7344 40.8839 50.7344C42.081 50.7344 43.226 50.37 44.1963 49.681C46.7124 47.8942 47.2725 44.4378 45.4445 41.9764C44.3864 40.5521 42.6783 39.7019 40.8763 39.7019ZM23.4638 47.164C22.8287 48.0188 21.8034 48.5289 20.7218 48.5289C20.0053 48.5289 19.3179 48.3097 18.7352 47.8959C17.2252 46.8235 16.8893 44.7496 17.9867 43.2733C18.6211 42.4189 19.6465 41.9091 20.7288 41.9091C21.4463 41.9091 22.133 42.1274 22.715 42.5412C24.225 43.6137 24.5608 45.6877 23.4638 47.164ZM25.8647 40.1787L24.0391 38.8821L23.0599 40.2001C22.3319 39.875 21.543 39.7028 20.7288 39.7028C18.9263 39.7028 17.2187 40.553 16.1608 41.9767C14.3326 44.4368 14.8924 47.8932 17.4086 49.681C18.3796 50.3705 19.525 50.735 20.7218 50.735C22.5233 50.735 24.2306 49.8852 25.2893 48.461C26.8911 46.3057 26.6602 43.3869 24.8875 41.4941L25.8647 40.1787Z" fill="url(#paint0_linear)"/>
<defs>
<linearGradient id="paint0_linear" x1="45.1985" y1="17.0694" x2="15.9729" y2="48.4099" gradientUnits="userSpaceOnUse">
<stop stop-color="#00B5CB"/>
<stop offset="1" stop-color="#2370E1"/>
</linearGradient>
</defs>
</svg>
